<svg width="50" height="50" viewBox="0 0 50 50" fill="none" xmlns="http://www.w3.org/2000/svg">
<path d="M31.25 41.4062H26.5625H26.3023L25.7812 42.9688C25 44.5312 24.9633 43.1961 25 42.9688L25.2758 41.4062H25H19.5312C18.668 41.4062 17.9688 40.707 17.9688 39.8438C17.9688 38.9805 18.668 38.2812 19.5312 38.2812H20.3125C21.1758 38.2812 21.875 37.582 21.875 36.7188C21.875 35.8555 21.1758 35.1562 20.3125 35.1562H10.9375V48.4375H38.2812C38.2812 44.5539 35.1336 41.4062 31.25 41.4062Z" fill="#C3D9ED"/>
<path d="M33.0727 21.0938L30.4688 28.9062H35.1586C36.4531 28.9062 37.5 29.9555 37.5 31.25C37.5 32.5445 36.4508 33.5938 35.1562 33.5938H32.8125C31.9492 33.5938 31.25 34.293 31.25 35.1562C31.25 36.0195 31.9492 36.7188 32.8125 36.7188H48.4375V21.0938H33.0727Z" fill="#C3D9ED"/>
<path d="M27.4812 28.9062L28.8602 21.0938H24.2187C24.2187 23.2508 20.907 24.2188 18.75 24.2188H17.8992C16.643 24.2188 15.625 25.2359 15.625 26.4922V26.5508C15.625 27.857 16.6719 28.9062 17.9664 28.9062H27.3437H27.4812Z" fill="#C3D9ED"/>
<path d="M35.5881 12.582L36.2874 13.9797C37.9069 13.1695 38.76 12.0305 39.0522 10.2852L37.5108 10.0273C37.3358 11.0711 36.9413 11.9055 35.5881 12.582Z" fill="#377FC1"/>
<path d="M37.5109 8.72344L39.0523 8.46484C38.6156 5.86562 36.2687 3.90625 33.5938 3.90625V5.46875C35.5156 5.46875 37.1992 6.86797 37.5109 8.72344Z" fill="#377FC1"/>
<path d="M34.1555 20.3125L34.9781 17.8469C39.0594 17.1812 42.1875 13.6414 42.1875 9.375C42.1875 4.63672 38.332 0.78125 33.5938 0.78125C28.8555 0.78125 25 4.63672 25 9.375C25 12.3687 26.5414 15.007 28.8695 16.5461L28.2055 20.3125H11.7188V18.75C11.7188 15.7344 9.26484 13.2812 6.25 13.2812C3.23516 13.2812 0.78125 15.7344 0.78125 18.75V43.75C0.78125 46.7656 3.23516 49.2188 6.25 49.2188H49.2188V20.3125H34.1555ZM26.5625 9.375C26.5625 5.49844 29.7164 2.34375 33.5938 2.34375C37.4711 2.34375 40.625 5.49844 40.625 9.375C40.625 13.2516 37.4711 16.4062 33.5938 16.4062C29.7164 16.4062 26.5625 13.2516 26.5625 9.375ZM33.2961 17.9539L26.7328 37.6422L30.3195 17.3172C31.2422 17.6992 32.2461 17.9172 33.2961 17.9539ZM2.34375 18.75C2.34375 16.5961 4.09609 14.8438 6.25 14.8438C8.40391 14.8438 10.1562 16.5961 10.1562 18.75V39.0828C9.50156 38.5867 8.69531 38.2812 7.8125 38.2812H6.25C4.72031 38.2812 3.3375 38.9141 2.34375 39.9305V18.75ZM10.1562 42.1875C10.1562 43.4797 9.10469 44.5312 7.8125 44.5312H7.03125V39.8438H7.8125C9.10469 39.8438 10.1562 40.8953 10.1562 42.1875ZM47.6562 47.6562H6.25C4.09609 47.6562 2.34375 45.9039 2.34375 43.75C2.34375 41.8633 3.68828 40.2852 5.46875 39.9227V46.0938H7.8125C9.96641 46.0938 11.7188 44.3414 11.7188 42.1875V21.875H27.9297L24.2289 42.8445C24.2266 42.8578 24.0266 44.1656 24.925 44.4555C25.0266 44.4883 25.1219 44.5031 25.2125 44.5031C25.8883 44.5031 26.2945 43.6906 26.4805 43.3188L33.6344 21.875H47.6562V47.6562Z" fill="#377FC1"/>
<path d="M3.90625 17.9688H5.46875V31.25H3.90625V17.9688Z" fill="#377FC1"/>
<path d="M3.90625 32.8125H5.46875V34.375H3.90625V32.8125Z" fill="#377FC1"/>
</svg>
