<svg width="50" height="50" viewBox="0 0 50 50" fill="none" xmlns="http://www.w3.org/2000/svg">
<path d="M38.7097 49.1936L37.0968 39.5161L38.6679 37.3516L35.4839 35.4839L32.2998 37.3516L33.871 39.5161L32.2581 49.1936H38.7097Z" fill="#C3D9ED"/>
<path d="M35.4838 9.67749C30.1474 9.67749 25.8064 14.0185 25.8064 19.3549V22.9493H26.5613C27.1531 22.2373 28.034 21.7743 29.0322 21.7743H41.9354C42.9336 21.7743 43.8145 22.2373 44.4064 22.9493H45.1612V19.3549C45.1612 14.0185 40.8203 9.67749 35.4838 9.67749Z" fill="#C3D9ED"/>
<path d="M12.9032 25.8064C5.78889 25.8064 0 20.0176 0 12.9032C0 5.78889 5.78889 0 12.9032 0C20.0176 0 25.8064 5.78889 25.8064 12.9032C25.8064 20.0176 20.0176 25.8064 12.9032 25.8064Z" fill="#C3D9ED"/>
<path d="M45.6244 33.8323L39.5161 32.4226V30.8345C40.1371 30.3363 40.6604 29.724 41.0629 29.0322H41.9355C44.1587 29.0322 45.9677 27.2232 45.9677 24.9999C45.9677 22.7766 44.1587 20.9676 41.9355 20.9676V19.3547H40.3226V19.8048C39.763 20.2919 39.0928 20.6384 38.3758 20.8192C38.4073 20.7885 38.4419 20.7621 38.4734 20.7314L37.333 19.591C36.7313 20.1927 35.9694 20.6128 35.1499 20.8192C35.1815 20.7885 35.2161 20.7621 35.2476 20.7314L34.1072 19.591C33.2323 20.466 32.021 20.9676 30.7838 20.9676H30.6452V19.3547H29.0323V20.9676C26.809 20.9676 25 22.7766 25 24.9999C25 27.2232 26.809 29.0322 29.0323 29.0322H29.9049C30.3065 29.724 30.8306 30.3363 31.4516 30.8345V32.4226L25.3434 33.8323C24.9445 33.924 24.5613 34.0678 24.1935 34.2426V29.8386C24.1935 28.5049 23.1079 27.4193 21.7742 27.4193H2.41935C1.08564 27.4193 0 28.5049 0 29.8386V44.3547C0 45.6885 1.08564 46.7741 2.41935 46.7741H8.87097V48.387H7.25806V49.9999H50V39.3329C50 36.6887 48.2008 34.4265 45.6244 33.8323ZM32.075 33.9347L34.0411 35.409L32.0533 36.6017L31.6257 34.0378L32.075 33.9347ZM38.8928 33.9347L39.4614 34.0662L38.9499 36.6226L36.9275 35.409L38.8928 33.9347ZM44.3548 24.9999C44.3548 26.3336 43.2692 27.4193 41.9355 27.4193H41.7232C41.8571 26.9022 41.9355 26.3643 41.9355 25.8063V22.5805C43.2692 22.5805 44.3548 23.6662 44.3548 24.9999ZM29.0323 27.4193C27.6985 27.4193 26.6129 26.3336 26.6129 24.9999C26.6129 23.6662 27.6985 22.5805 29.0323 22.5805V25.8063C29.0323 26.3643 29.1106 26.9022 29.2445 27.4193H29.0323ZM30.6452 25.8063V22.5805H30.7838C31.567 22.5805 32.3404 22.4258 33.0645 22.1442V22.5805H34.0096C34.7928 22.5805 35.5662 22.4258 36.2903 22.1442V22.5805H37.2354C38.3187 22.5805 39.3846 22.2895 40.3226 21.765V25.8063C40.3226 26.3726 40.2194 26.9136 40.0402 27.4193H35.4839V29.0322H39.0806C38.1942 30.0194 36.9129 30.6451 35.4839 30.6451C32.8153 30.6451 30.6452 28.475 30.6452 25.8063ZM35.4839 32.258C36.3395 32.258 37.1558 32.0871 37.9032 31.7831V32.6612L35.4839 34.4757L33.0645 32.6612V31.7831C33.8119 32.0871 34.6282 32.258 35.4839 32.258ZM2.41935 45.1612C1.97439 45.1612 1.6129 44.7997 1.6129 44.3547V29.8386C1.6129 29.3936 1.97439 29.0322 2.41935 29.0322H21.7742C22.2192 29.0322 22.5806 29.3936 22.5806 29.8386V44.3547C22.5806 44.7997 22.2192 45.1612 21.7742 45.1612H15.3226V43.5483C15.3226 41.7692 13.8759 40.3225 12.0968 40.3225C10.3177 40.3225 8.87097 41.7692 8.87097 43.5483V45.1612H2.41935ZM15.3226 46.7741H20.9677V48.387H15.3226V46.7741ZM10.4839 43.5483C10.4839 42.6587 11.2072 41.9354 12.0968 41.9354C12.9863 41.9354 13.7097 42.6587 13.7097 43.5483V48.387H10.4839V43.5483ZM48.3871 48.387H44.3548V39.516H42.7419V48.387H28.2258V39.516H26.6129V48.387H22.5806V46.6256C23.517 46.2917 24.1935 45.4045 24.1935 44.3547V36.1162C24.6421 35.7791 25.1555 35.5314 25.7056 35.4046L30.051 34.4025L30.8507 39.2045L35.4839 36.4241L40.0824 39.1837L41.033 34.4288L45.2621 35.4046C47.1014 35.8291 48.3871 37.4444 48.3871 39.3329V48.387Z" fill="#377FC1"/>
<path d="M20.1614 16.4846C20.1614 15.4419 19.4967 14.5193 18.5075 14.1897L15.3227 13.1281V12.0759C16.2961 11.3388 16.9356 10.1823 16.9356 8.87099V7.25809C16.9356 5.03483 15.1266 3.22583 12.9033 3.22583C10.6801 3.22583 8.87107 5.03483 8.87107 7.25809V8.87099C8.87107 10.1831 9.51056 11.3396 10.484 12.0759V13.1281L7.29912 14.1897C6.30996 14.5201 5.64526 15.4419 5.64526 16.4846V20.9678H20.1614V16.4846ZM10.484 7.25809C10.484 5.92437 11.5696 4.83873 12.9033 4.83873C14.237 4.83873 15.3227 5.92437 15.3227 7.25809V8.87099C15.3227 10.2047 14.237 11.2903 12.9033 11.2903C11.5696 11.2903 10.484 10.2047 10.484 8.87099V7.25809ZM18.5485 19.3549H7.25817V16.4846C7.25817 16.1369 7.47907 15.8298 7.80985 15.7195L12.0969 14.2913V12.8217C12.3576 12.8749 12.6277 12.9032 12.9033 12.9032C13.179 12.9032 13.4491 12.8749 13.7098 12.8217V14.2913L17.9968 15.7195C18.3276 15.8298 18.5485 16.1381 18.5485 16.4846V19.3549Z" fill="#377FC1"/>
<path d="M29.8386 4.83862H31.4515V6.45153H29.8386V4.83862Z" fill="#377FC1"/>
<path d="M34.6775 4.83862H36.2904V6.45153H34.6775V4.83862Z" fill="#377FC1"/>
<path d="M39.5161 4.83862H41.129V6.45153H39.5161V4.83862Z" fill="#377FC1"/>
</svg>
