<svg width="50" height="50" viewBox="0 0 50 50" fill="none" xmlns="http://www.w3.org/2000/svg">
<path d="M19.3546 34.6775H3.22559V36.2904H19.3546V34.6775Z" fill="#377FC1"/>
<path d="M12.903 37.9033H3.22559V39.5162H12.903V37.9033Z" fill="#377FC1"/>
<path d="M19.3551 37.9033H17.7422V39.5162H19.3551V37.9033Z" fill="#377FC1"/>
<path d="M16.129 37.9033H14.5161V39.5162H16.129V37.9033Z" fill="#377FC1"/>
<path d="M28.2258 15.3225V16.129C28.2258 17.908 26.779 19.3548 25 19.3548C23.221 19.3548 21.7742 17.908 21.7742 16.129V15.3225H19.3548V16.9354H20.2282C20.5694 18.958 22.171 20.5532 24.1935 20.8943V22.5806H25.8065V20.8943C27.829 20.5532 29.4306 18.958 29.7718 16.9354H48.3871V41.129H29.7718C29.4306 39.1064 27.829 37.5112 25.8065 37.1701V35.5104H24.1935V37.1701C22.171 37.5112 20.5694 39.1064 20.2282 41.129H1.6129V16.9354H3.22581V15.3225H0V42.7419H21.7742V41.9354C21.7742 40.1564 23.221 38.7096 25 38.7096C26.779 38.7096 28.2258 40.1564 28.2258 41.9354V42.7419H50V15.3225H28.2258Z" fill="#377FC1"/>
<path d="M46.7741 26.6128H30.645V28.2257H46.7741V26.6128Z" fill="#377FC1"/>
<path d="M46.7741 33.0645H30.645V34.6774H46.7741V33.0645Z" fill="#377FC1"/>
<path d="M46.7741 36.2903H30.645V37.9032H46.7741V36.2903Z" fill="#377FC1"/>
<path d="M40.3224 29.8386H30.645V31.4515H40.3224V29.8386Z" fill="#377FC1"/>
<path d="M25.8063 30.6694H24.1934V32.2557H25.8063V30.6694Z" fill="#377FC1"/>
<path d="M46.774 29.8386H45.1611V31.4515H46.774V29.8386Z" fill="#377FC1"/>
<path d="M43.5485 29.8386H41.9355V31.4515H43.5485V29.8386Z" fill="#377FC1"/>
<path d="M46.7741 18.5483H30.645V25H46.7741V18.5483ZM45.1611 23.387H32.2579V20.1612H45.1611V23.387Z" fill="#377FC1"/>
<path d="M25.8063 25.8306H24.1934V27.4169H25.8063V25.8306Z" fill="#377FC1"/>
<path d="M19.3546 33.0644H3.22559V26.6128H19.3546V33.0644ZM4.83849 31.4515H17.7417V28.2257H4.83849V31.4515Z" fill="#377FC1"/>
<path d="M11.2904 25C16.1897 25 20.1614 21.0283 20.1614 16.129C20.1614 11.2297 16.1897 7.25806 11.2904 7.25806C6.3911 7.25806 2.41943 11.2297 2.41943 16.129C2.41943 21.0283 6.3911 25 11.2904 25Z" fill="#C3D9ED"/>
<path d="M11.2904 20.1612C9.95658 20.1612 8.87109 19.0757 8.87109 17.7418H10.484C10.484 18.1862 10.8461 18.5483 11.2904 18.5483C11.7348 18.5483 12.0969 18.1862 12.0969 17.7418C12.0969 17.2975 11.7348 16.9354 11.2904 16.9354C9.95658 16.9354 8.87109 15.8499 8.87109 14.516C8.87109 13.1822 9.95658 12.0967 11.2904 12.0967C12.6243 12.0967 13.7098 13.1822 13.7098 14.516H12.0969C12.0969 14.0717 11.7348 13.7096 11.2904 13.7096C10.8461 13.7096 10.484 14.0717 10.484 14.516C10.484 14.9604 10.8461 15.3225 11.2904 15.3225C12.6243 15.3225 13.7098 16.408 13.7098 17.7418C13.7098 19.0757 12.6243 20.1612 11.2904 20.1612Z" fill="#377FC1"/>
<path d="M12.0968 10.4839H10.4839V12.9032H12.0968V10.4839Z" fill="#377FC1"/>
<path d="M12.0968 19.3547H10.4839V21.7741H12.0968V19.3547Z" fill="#377FC1"/>
<path d="M16.9357 15.3225H15.3228V16.9354H16.9357V15.3225Z" fill="#377FC1"/>
<path d="M7.25792 15.3225H5.64502V16.9354H7.25792V15.3225Z" fill="#377FC1"/>
</svg>
