<svg width="44" height="44" viewBox="0 0 44 44" fill="none" xmlns="http://www.w3.org/2000/svg">
<path d="M10.3125 0C5.005 0 0.6875 4.3175 0.6875 9.625C0.6875 14.9325 5.005 19.25 10.3125 19.25C15.62 19.25 19.9375 14.9325 19.9375 9.625C19.9375 4.3175 15.62 0 10.3125 0ZM2.09756 10.3125H4.83175C4.86956 11.2798 4.98438 12.2011 5.16794 13.0625H2.82219C2.431 12.2128 2.17869 11.2874 2.09756 10.3125ZM11 4.8125V1.50425C12.067 1.881 13.0061 3.1075 13.6324 4.8125H11ZM14.0436 6.1875C14.2457 7.04138 14.3777 7.96744 14.4196 8.9375H11V6.1875H14.0436ZM9.625 1.50425V4.8125H6.99256C7.61887 3.1075 8.558 1.881 9.625 1.50425ZM9.625 6.1875V8.9375H6.20538C6.248 7.96744 6.37931 7.04138 6.58144 6.1875H9.625ZM4.83175 8.9375H2.09756C2.17869 7.96263 2.431 7.03725 2.82288 6.1875H5.16794C4.98438 7.04894 4.86888 7.97019 4.83175 8.9375ZM6.20538 10.3125H9.625V13.0625H6.58213C6.37931 12.2086 6.248 11.2826 6.20538 10.3125ZM9.625 14.4375V17.7458C8.558 17.3697 7.61887 16.1432 6.99256 14.4375H9.625ZM11 17.7458V14.4375H13.6324C13.0061 16.1425 12.067 17.369 11 17.7458ZM11 13.0625V10.3125H14.4196C14.377 11.2826 14.2457 12.2086 14.0436 13.0625H11ZM15.7933 10.3125H18.5274C18.4463 11.2874 18.194 12.2128 17.8021 13.0625H15.4571C15.6406 12.2011 15.7561 11.2798 15.7933 10.3125ZM15.7933 8.9375C15.7554 7.97019 15.6406 7.04894 15.4571 6.1875H17.8021C18.194 7.03725 18.4463 7.96263 18.5274 8.9375H15.7933ZM16.9998 4.8125H15.0934C14.7661 3.80187 14.3406 2.90606 13.8325 2.17456C15.0989 2.77544 16.1865 3.68637 16.9998 4.8125ZM6.7925 2.17456C6.28444 2.90606 5.85887 3.80187 5.53162 4.8125H3.62519C4.4385 3.68637 5.52612 2.77544 6.7925 2.17456ZM3.62519 14.4375H5.53162C5.85887 15.4481 6.28444 16.3439 6.7925 17.0754C5.52612 16.4746 4.4385 15.5636 3.62519 14.4375ZM13.8325 17.0754C14.3406 16.3439 14.7661 15.4481 15.0934 14.4375H16.9998C16.1865 15.5636 15.0989 16.4746 13.8325 17.0754Z" fill="#377FC1"/>
<path opacity="0.3" d="M26.2238 31.7144L22.6475 42.625H25.3975L27.4998 39.1875L24.7498 37.125L28.8748 36.4375L28.8796 32.6521L26.2238 31.7144Z" fill="#377FC1"/>
<path opacity="0.3" d="M28.083 12.3797L28.0679 12.3749H23.375C22.6153 12.3749 22 11.7596 22 10.9999V10.3399L21.9821 10.3337C19.6673 10.4994 17.5148 11.6228 16.0531 13.4488L15.8125 13.7499C14.1962 14.1542 13.0625 15.6062 13.0625 17.272V22.6874C13.0625 21.1687 14.2938 19.9374 15.8125 19.9374C15.8125 19.1777 16.4278 18.5624 17.1875 18.5624H22.2709C22.5424 18.5624 22.8078 18.482 23.0333 18.3314L24.1292 17.6006C24.5341 17.3311 25.0092 17.1874 25.4952 17.1874C26.3182 17.1874 27.0868 17.5985 27.5433 18.2833L27.9565 18.9034C28.1071 19.1296 28.1875 19.395 28.1875 19.6665V19.9374H28.2989C29.7564 19.9374 30.9375 21.1185 30.9375 22.576V18.6704C30.9375 16.1624 29.8327 13.9122 28.083 12.3797Z" fill="#377FC1"/>
<path d="M26.125 3.4375C24.9879 3.4375 24.0625 4.36287 24.0625 5.5V6.1875H25.4375V5.5C25.4375 5.12119 25.7455 4.8125 26.125 4.8125C26.5045 4.8125 26.8125 5.12119 26.8125 5.5V5.61756C26.8125 5.80112 26.741 5.97437 26.6111 6.10431L24.0625 8.65288V10.3125H28.1875V8.9375H25.7221L27.5832 7.07644C27.973 6.68731 28.1875 6.16894 28.1875 5.61756V5.5C28.1875 4.36287 27.2621 3.4375 26.125 3.4375Z" fill="#377FC1"/>
<path d="M33.6875 3.4375H31.9825L28.875 7.32119V8.9375H32.3125V10.3125H33.6875V8.9375H35.0625V7.5625H33.6875V3.4375ZM32.3125 7.5625H30.4425L32.3125 5.22569V7.5625Z" fill="#377FC1"/>
<path d="M38.5 5.5C38.258 5.5 38.0284 5.5495 37.8125 5.6265V3.4375H36.4375V7.5625V8.25V10.3125H37.8125V8.25V7.5625C37.8125 7.18369 38.1205 6.875 38.5 6.875C38.8795 6.875 39.1875 7.18369 39.1875 7.5625V10.3125H40.5625V7.5625C40.5625 6.42537 39.6371 5.5 38.5 5.5Z" fill="#377FC1"/>
<path d="M41.25 0.6875H23.375C22.2379 0.6875 21.3125 1.61287 21.3125 2.75V11C21.3125 12.1371 22.2379 13.0625 23.375 13.0625H30.9375V15.0954C30.9375 16.2491 31.8759 17.1875 33.0296 17.1875C33.6524 17.1875 34.2389 16.9132 34.6369 16.4347L37.4474 13.0625H41.25C42.3871 13.0625 43.3125 12.1371 43.3125 11V2.75C43.3125 1.61287 42.3871 0.6875 41.25 0.6875ZM41.9375 11C41.9375 11.3788 41.6295 11.6875 41.25 11.6875H36.8026L33.5796 15.5547C33.4441 15.7183 33.2434 15.8125 33.0296 15.8125C32.6342 15.8125 32.3125 15.4908 32.3125 15.0954V11.6875H23.375C22.9955 11.6875 22.6875 11.3788 22.6875 11V2.75C22.6875 2.37119 22.9955 2.0625 23.375 2.0625H41.25C41.6295 2.0625 41.9375 2.37119 41.9375 2.75V11Z" fill="#377FC1"/>
<path d="M32.8702 35.2399C32.2831 34.7332 31.6183 34.3476 30.895 34.0918L25.1702 32.0719C24.0729 31.6849 23.3359 30.6426 23.3359 29.4787V29.2532H24.7109V29.4787C24.7109 30.061 25.0794 30.5814 25.6281 30.7753L31.3529 32.7952C32.2377 33.108 33.051 33.5796 33.7688 34.1984L32.8702 35.2399Z" fill="#377FC1"/>
<path opacity="0.3" d="M17.7368 31.7144L21.3125 42.625H18.5625L16.5 39.1875L19.25 37.125L15.125 36.4375V33L17.7368 31.7144Z" fill="#377FC1"/>
<path d="M31.3528 32.7951L25.6286 30.7752C25.1281 30.5986 24.7926 30.1469 24.7342 29.6285C25.333 29.2084 25.8775 28.7244 26.3622 28.1882H29.5625C30.6996 28.1882 31.625 27.2628 31.625 26.1257V22.8003V22.6875V22.5754C31.625 20.9268 30.4164 19.5649 28.8399 19.3043C28.7904 19.0266 28.688 18.7605 28.5285 18.5219L28.1146 17.9018C27.5296 17.0239 26.5499 16.5 25.4953 16.5C24.8717 16.5 24.2681 16.6829 23.7483 17.0287L22.6518 17.7595C22.539 17.8351 22.4077 17.875 22.2716 17.875H17.1875C16.2711 17.875 15.5011 18.48 15.2336 19.3084C13.6139 19.5855 12.375 20.9907 12.375 22.6875C12.375 24.5829 13.9171 26.125 15.8125 26.125H16.2051C16.9152 27.5041 17.9513 28.6976 19.2301 29.6038C19.1799 30.1324 18.8403 30.5958 18.3322 30.7752L12.6081 32.7951C9.58994 33.8601 7.5625 36.7262 7.5625 39.9266V43.3125H36.3976V39.9266C36.3976 36.7262 34.3702 33.8601 31.3528 32.7951ZM18.6532 32.12L21.0238 34.9642L19.8371 35.9136L18.6003 32.1393L18.6532 32.12ZM21.9801 35.959L23.6665 37.3086L22.1499 41.9375H21.8109L20.2936 37.3086L21.9801 35.959ZM24.1244 35.9129L22.9377 34.9635L25.3083 32.1193L25.3619 32.1386L24.1244 35.9129ZM29.5625 26.8125H27.4031C27.5426 26.5884 27.6739 26.3601 27.7949 26.125H28.2989C29.0297 26.125 29.7007 25.8809 30.25 25.4801V26.125C30.25 26.5038 29.942 26.8125 29.5625 26.8125ZM30.25 22.5754V22.6875V22.7996C30.25 23.8487 29.4154 24.7005 28.3766 24.7424C28.7004 23.7682 28.875 22.7329 28.875 21.6652V20.7219C29.6684 20.9694 30.25 21.7023 30.25 22.5754ZM13.75 22.6875C13.75 21.7924 14.3268 21.0361 15.125 20.7515V21.6652C15.125 22.7288 15.2982 23.76 15.6193 24.7301C14.5736 24.6311 13.75 23.7586 13.75 22.6875ZM16.5 21.6652V19.9375C16.5 19.5587 16.808 19.25 17.1875 19.25H22.2716C22.6813 19.25 23.0766 19.1304 23.4156 18.9035L24.5114 18.1734C25.2993 17.6488 26.4467 17.8784 26.9713 18.6649L27.3852 19.2844C27.4594 19.3985 27.5 19.5305 27.5 19.6659V21.6652C27.5 23.5813 26.8469 25.377 25.7249 26.8125H22V28.1875H24.3671C23.6679 28.7478 22.8738 29.2043 22 29.5219C18.7007 28.3216 16.5 25.1934 16.5 21.6652ZM21.7828 30.9024L22 30.9746L22.2173 30.9024C22.6586 30.7553 23.0808 30.5745 23.4884 30.371C23.6211 30.7567 23.8356 31.108 24.1189 31.3981L21.9801 33.9653L19.8413 31.3981C20.1279 31.1039 20.3452 30.7471 20.4779 30.3559C20.8952 30.5656 21.329 30.7512 21.7828 30.9024ZM8.9375 39.9266C8.9375 37.3079 10.5964 34.9628 13.0659 34.0918L17.3023 32.5964L20.3638 41.9375H14.4375V38.5H13.0625V41.9375H8.9375V39.9266ZM35.0226 41.9375H30.9375V38.5H29.5625V41.9375H23.5964L26.6578 32.5964L30.8942 34.0918C33.3637 34.9635 35.0226 37.3086 35.0226 39.9266V41.9375Z" fill="#377FC1"/>
<path d="M11.0907 35.2399L10.1921 34.1983C10.9099 33.5796 11.7232 33.1079 12.608 32.7951L18.3321 30.7753C18.8815 30.5814 19.25 30.0603 19.25 29.4779V29.2524H20.625V29.4779C20.625 30.6419 19.888 31.6841 18.79 32.0712L13.0659 34.0911C12.3426 34.3468 11.6778 34.7332 11.0907 35.2399Z" fill="#377FC1"/>
</svg>
