<svg width="44" height="44" viewBox="0 0 44 44" fill="none" xmlns="http://www.w3.org/2000/svg">
<g clip-path="url(#clip0)">
<path d="M34.0139 13.4839C33.8762 13.4839 33.7379 13.4434 33.6179 13.3632C33.3859 13.2071 33.2673 12.9303 33.3142 12.6543L33.7804 9.93548H31.8849C30.7111 9.93548 29.7559 8.98026 29.7559 7.80645V2.12903C29.7559 0.955226 30.7111 0 31.8849 0H41.8204C42.9942 0 43.9494 0.955226 43.9494 2.12903V7.80645C43.9494 8.98026 42.9942 9.93548 41.8204 9.93548H39.895L34.3901 13.376C34.2751 13.4477 34.1445 13.4839 34.0139 13.4839Z" fill="#C3D9ED"/>
<path d="M7.097 29.8565L8.93213 28.0214L4.67431 23.7636L2.83918 25.5987L7.097 29.8565Z" fill="#C3D9ED"/>
<path d="M18.4871 41.2479L20.5296 39.3765L16.2715 35.1184L14.2163 36.9771L18.4871 41.2479Z" fill="#C3D9ED"/>
<path d="M34.0647 33.3932C33.4906 31.6722 32.0258 30.4019 30.2402 30.0769L25.4975 29.2139V28.8463C26.3228 28.3673 27.041 27.7264 27.613 26.9678H29.0459C30.2197 26.9678 31.1749 26.0125 31.1749 24.8387V16.3226C31.1749 11.2356 27.036 7.0968 21.9491 7.0968C16.8621 7.0968 12.7233 11.2356 12.7233 16.3226V21.2903C12.7233 22.6586 13.6962 23.8033 14.9864 24.0702C15.3846 26.1098 16.6591 27.8357 18.4007 28.8463V29.2139L13.6572 30.0769C11.8724 30.4019 10.4069 31.6722 9.83346 33.3932L9.54959 34.2455L7.13243 31.8283C6.85566 31.5516 6.85566 31.1009 7.13243 30.8242L9.93566 28.0216L4.67411 22.7601L1.50611 25.9281C0.567915 26.8663 0.0512695 28.1139 0.0512695 29.441C0.0512695 30.7681 0.567915 32.015 1.50611 32.9532L11.0974 42.5445C12.0356 43.4827 13.2832 44 14.6103 44C15.9374 44 17.1843 43.4827 18.1005 42.5658L21.5573 39.3985L20.4793 38.3226H35.7076L34.0647 33.3932ZM21.9491 31.6417L19.82 29.5127V29.4793C20.4928 29.6908 21.2075 29.8065 21.9491 29.8065C22.6907 29.8065 23.4053 29.6908 24.0781 29.4793V29.5127L21.9491 31.6417ZM29.0459 25.5484H28.449C28.6548 25.0793 28.8109 24.5847 28.9117 24.0702C29.2155 24.007 29.4951 23.8864 29.7555 23.7345V24.8387C29.7555 25.2305 29.4369 25.5484 29.0459 25.5484ZM29.0459 20.0683C29.4681 20.3145 29.7555 20.7673 29.7555 21.2903C29.7555 21.8134 29.4681 22.2662 29.0459 22.5124V20.0683ZM14.1426 21.2903C14.1426 20.7673 14.43 20.3145 14.8523 20.0683V22.5124C14.43 22.2662 14.1426 21.8134 14.1426 21.2903ZM14.8523 17.742V18.5524C14.5997 18.6184 14.3626 18.7178 14.1426 18.8462V16.3226C14.1426 12.0184 17.6449 8.51616 21.9491 8.51616C26.2533 8.51616 29.7555 12.0184 29.7555 16.3226V18.8462C29.5355 18.7178 29.2985 18.6177 29.0459 18.5524V17.742H28.3362C26.2377 17.742 24.2648 16.9244 22.7801 15.4405L21.9491 14.6094L21.118 15.4405C19.6334 16.9244 17.6605 17.742 15.562 17.742H14.8523ZM16.2717 22.7097V19.1343C18.4028 18.974 20.3899 18.0947 21.9491 16.6122C23.5082 18.0947 25.4953 18.9747 27.6265 19.1343V22.7097C27.6265 23.7444 27.344 24.7124 26.8586 25.5484H21.9491V26.9678H25.6919C24.6913 27.8485 23.3833 28.3871 21.9491 28.3871C18.8187 28.3871 16.2717 25.8401 16.2717 22.7097ZM7.92798 28.0216L7.15727 28.7923L3.90269 25.5378L4.6734 24.7671L7.92798 28.0216ZM14.6089 42.5807C13.6615 42.5807 12.7701 42.2109 12.0995 41.541L2.50817 31.9504C1.83824 31.2805 1.4692 30.3891 1.4692 29.4417C1.4692 28.4936 1.83824 27.6022 2.50817 26.9323L2.89849 26.542L6.15308 29.7965L6.12753 29.8221C5.29791 30.6524 5.29791 32.0029 6.12753 32.8333L11.2166 37.9223C11.619 38.324 12.1534 38.5462 12.7226 38.5462C13.2917 38.5462 13.8261 38.3247 14.2022 37.9472L14.2555 37.8996L17.5249 41.1691L17.1176 41.5424C16.4477 42.2109 15.5563 42.5807 14.6089 42.5807ZM18.5724 40.2082L15.31 36.9458L16.2475 36.0985L19.5042 39.3552L18.5724 40.2082ZM19.06 36.9033L16.2958 34.1391L13.2243 36.9174C12.9568 37.1864 12.4891 37.1864 12.2208 36.9174L10.6709 35.3675L11.179 33.8417C11.5885 32.6125 12.6353 31.7049 13.9106 31.4721L18.8712 30.5708L21.9491 33.6487L25.0262 30.5715L29.9862 31.4728C31.2615 31.7056 32.3082 32.6125 32.7177 33.8424L33.7389 36.9033H19.06Z" fill="#377FC1"/>
<path d="M41.1104 2.83875H32.5942V4.2581H41.1104V2.83875Z" fill="#377FC1"/>
<path d="M38.2717 5.67737H32.5942V7.09672H38.2717V5.67737Z" fill="#377FC1"/>
<path d="M41.1108 5.67737H39.6914V7.09672H41.1108V5.67737Z" fill="#377FC1"/>
<path d="M6.70188 17.6404L5.97162 16.4234L4.04839 17.5773C6.05962 9.39258 13.4197 3.54838 21.9493 3.54838C23.8136 3.54838 25.6531 3.82516 27.4167 4.37161L27.8368 3.01613C25.937 2.42709 23.9563 2.12903 21.9493 2.12903C12.6767 2.12903 4.68923 8.54309 2.61272 17.49L1.26788 15.2481L0.0507812 15.9784L2.5453 20.135L6.70188 17.6404Z" fill="#377FC1"/>
<path d="M43.6048 15.7145L39.4482 13.22L36.9537 17.3766L38.1708 18.1068L39.4127 16.0367C40.0663 17.9493 40.4006 19.9498 40.4006 22.0001C40.4006 26.2206 38.9386 30.3466 36.2852 33.6175L37.3873 34.5117C40.2459 30.9889 41.8199 26.5449 41.8199 22.0001C41.8199 19.8292 41.4701 17.7094 40.7881 15.6797L42.8738 16.9309L43.6048 15.7145Z" fill="#377FC1"/>
</g>
<defs>
<clipPath id="clip0">
<rect width="44" height="44" fill="white"/>
</clipPath>
</defs>
</svg>
