<svg width="20" height="20" viewBox="0 0 20 20" fill="none" xmlns="http://www.w3.org/2000/svg">
<path fill-rule="evenodd" clip-rule="evenodd" d="M9.16683 4.16667C6.86564 4.16667 5.00016 6.03215 5.00016 8.33333V9.16667V15H2.50016C1.57969 15 0.833496 14.2538 0.833496 13.3333V10C0.833496 9.07952 1.57969 8.33333 2.50016 8.33333H3.3335C3.3335 5.11167 5.94517 2.5 9.16683 2.5H10.8335C14.0552 2.5 16.6668 5.11167 16.6668 8.33333L17.5002 8.33333C18.4206 8.33333 19.1668 9.07952 19.1668 10V13.3333C19.1668 14.2538 18.4206 15 17.5002 15H16.5618C16.1918 16.4377 14.8867 17.5 13.3335 17.5H12.2772C11.989 17.9982 11.4504 18.3333 10.8335 18.3333C9.91302 18.3333 9.16683 17.5871 9.16683 16.6667C9.16683 15.7462 9.91302 15 10.8335 15C11.4504 15 11.989 15.3352 12.2772 15.8333H13.3335C14.2537 15.8333 14.9998 15.0875 15.0002 14.1673C15.0002 14.1671 15.0002 14.1669 15.0002 14.1667L15.0002 9.16667V8.33333C15.0002 6.03215 13.1347 4.16667 10.8335 4.16667H9.16683ZM3.3335 10H2.50016L2.50016 13.3333H3.3335V10ZM9.16683 10.2083C9.16683 10.7836 8.70046 11.25 8.12516 11.25C7.54987 11.25 7.0835 10.7836 7.0835 10.2083C7.0835 9.63304 7.54987 9.16667 8.12516 9.16667C8.70046 9.16667 9.16683 9.63304 9.16683 10.2083ZM11.8752 11.25C12.4505 11.25 12.9168 10.7836 12.9168 10.2083C12.9168 9.63304 12.4505 9.16667 11.8752 9.16667C11.2999 9.16667 10.8335 9.63304 10.8335 10.2083C10.8335 10.7836 11.2999 11.25 11.8752 11.25ZM16.6668 10H17.5002V13.3333H16.6668V10Z" fill="#1D3D66"/>
</svg>
