<svg width="50" height="50" viewBox="0 0 50 50" fill="none" xmlns="http://www.w3.org/2000/svg">
<path d="M49.1936 19.3547H25V24.1934H49.1936V19.3547Z" fill="#C3D9ED"/>
<path d="M14.516 20.1611C9.62486 20.1611 5.64502 24.141 5.64502 29.0321C5.64502 33.9232 9.62486 37.9031 14.516 37.9031C15.4241 37.9031 16.3192 37.766 17.1773 37.4966V20.5676C16.3192 20.2982 15.4241 20.1611 14.516 20.1611Z" fill="#C3D9ED"/>
<path d="M35.4841 45.1614H25.8066V46.7743H35.4841V45.1614Z" fill="#377FC1"/>
<path d="M20.9679 14.5161H19.355V38.7097H20.9679V14.5161Z" fill="#377FC1"/>
<path d="M48.3871 16.129H45.1613V4.03226C45.1613 1.80887 43.3524 0 41.129 0H20.1613C17.9379 0 16.129 1.80887 16.129 4.03226V8.06452H3.22581V16.9355H0V41.129H16.129V45.9677C16.129 48.1911 17.9379 50 20.1613 50H41.129C43.3524 50 45.1613 48.1911 45.1613 45.9677V33.871H48.3871C49.2766 33.871 50 33.1476 50 32.2581V17.7419C50 16.8524 49.2766 16.129 48.3871 16.129ZM20.1613 1.6129H41.129C42.4629 1.6129 43.5484 2.69839 43.5484 4.03226V6.45161H17.7419V4.03226C17.7419 2.69839 18.8274 1.6129 20.1613 1.6129ZM16.129 28.3742C15.8758 28.2839 15.6065 28.2258 15.3226 28.2258H13.7097C13.2645 28.2258 12.9032 27.8637 12.9032 27.4194C12.9032 26.975 13.2645 26.6129 13.7097 26.6129H15.3226C15.7677 26.6129 16.129 26.975 16.129 27.4194V28.3742ZM4.83871 9.67742H16.129V16.9355H4.83871V9.67742ZM1.6129 39.5161V18.5484H16.129V25.1484C15.8758 25.0581 15.6065 25 15.3226 25V23.3871H13.7097V25C12.3758 25 11.2903 26.0855 11.2903 27.4194C11.2903 28.7532 12.3758 29.8387 13.7097 29.8387H15.3226C15.7677 29.8387 16.129 30.2008 16.129 30.6452C16.129 31.0895 15.7677 31.4516 15.3226 31.4516H13.7097C13.2645 31.4516 12.9032 31.0895 12.9032 30.6452H11.2903C11.2903 31.979 12.3758 33.0645 13.7097 33.0645V34.6774H15.3226V33.0645C15.6065 33.0645 15.8758 33.0065 16.129 32.9161V39.5161H1.6129ZM41.129 48.3871H20.1613C18.8274 48.3871 17.7419 47.3016 17.7419 45.9677V43.5484H43.5484V45.9677C43.5484 47.3016 42.4629 48.3871 41.129 48.3871ZM43.5484 41.9355H17.7419V8.06452H43.5484V16.129H25.8065C24.9169 16.129 24.1935 16.8524 24.1935 17.7419V32.2581C24.1935 33.1476 24.9169 33.871 25.8065 33.871H43.5484V41.9355ZM25.8065 32.2581V17.7419H48.3871L48.3879 32.2581H25.8065Z" fill="#377FC1"/>
<path d="M31.4517 29.0322H27.4194V30.6451H31.4517V29.0322Z" fill="#377FC1"/>
<path d="M3.22559 23.3872H4.83849V21.7743H6.45139V20.1614H3.22559V23.3872Z" fill="#377FC1"/>
<path d="M6.45166 11.2903V14.5161H8.06456V12.9032H9.67747V11.2903H6.45166Z" fill="#377FC1"/>
<path d="M4.83849 34.6775H3.22559V37.9033H6.45139V36.2904H4.83849V34.6775Z" fill="#377FC1"/>
<path d="M46.774 29.0322H45.1611V30.6451H46.774V29.0322Z" fill="#377FC1"/>
<path d="M43.5485 29.0322H41.9355V30.6451H43.5485V29.0322Z" fill="#377FC1"/>
<path d="M20.9679 11.2903H19.355V12.9032H20.9679V11.2903Z" fill="#377FC1"/>
</svg>
