<svg width="44" height="44" viewBox="0 0 44 44" fill="none" xmlns="http://www.w3.org/2000/svg">
<path d="M37.8125 32.3125H28.1875V27.5H37.8125V32.3125Z" fill="#C3D9ED"/>
<path d="M40.5625 40.5625H33.6875V37.125H40.5625V40.5625Z" fill="#C3D9ED"/>
<path d="M21.3125 31.625H15.8125V28.875H21.3125V31.625Z" fill="#C3D9ED"/>
<path d="M21.3125 15.125H15.8125V9.625H21.3125V15.125Z" fill="#C3D9ED"/>
<path d="M19.9346 19.2515L34.8557 4.33031L39.6673 9.14185L24.7461 24.063L19.9346 19.2515Z" fill="#C3D9ED"/>
<path d="M41.25 26.8125H30.9375V18.8471L42.1142 7.67044C42.8869 6.89769 43.3125 5.87056 43.3125 4.77812C43.3125 2.52244 41.4776 0.6875 39.2219 0.6875C38.1294 0.6875 37.1023 1.11306 36.3296 1.88513L30.9375 7.27719V5.5C30.9375 3.60456 29.3954 2.0625 27.5 2.0625H22.561C22.2764 1.26431 21.5201 0.6875 20.625 0.6875H11C10.1049 0.6875 9.34863 1.26431 9.064 2.0625H4.125C2.22956 2.0625 0.6875 3.60456 0.6875 5.5V34.375C0.6875 36.2704 2.22956 37.8125 4.125 37.8125H22.6875V41.25C22.6875 42.3871 23.6129 43.3125 24.75 43.3125H41.25C42.3871 43.3125 43.3125 42.3871 43.3125 41.25V28.875C43.3125 27.7379 42.3871 26.8125 41.25 26.8125ZM29.5625 26.8125H28.1875V21.5971L29.5625 20.2221V26.8125ZM22.6875 28.875V33.6875H4.8125V6.1875H9.064C9.34863 6.98569 10.1049 7.5625 11 7.5625H20.625C21.5201 7.5625 22.2764 6.98569 22.561 6.1875H26.8125V11.4029L19.3462 18.8691L17.3057 24.31C17.2274 24.5183 17.1875 24.7369 17.1875 24.9611C17.1875 25.982 18.018 26.8125 19.0389 26.8125C19.2624 26.8125 19.4817 26.7726 19.6886 26.6949L25.1302 24.6538L26.8125 22.9721V26.8125H24.75C23.6129 26.8125 22.6875 27.7379 22.6875 28.875ZM22.8298 22.1423L34.7188 10.2534L36.1529 11.6875L24.3691 23.4712L19.2046 25.4079C18.9138 25.5159 18.5625 25.2808 18.5625 24.9611C18.5625 24.9033 18.5728 24.8476 18.5928 24.7947L20.5288 19.6309L32.3125 7.84712L33.7466 9.28125L21.8577 21.1702L22.8298 22.1423ZM37.3017 2.85794C37.8146 2.34506 38.4966 2.0625 39.2219 2.0625C40.7192 2.0625 41.9375 3.28075 41.9375 4.77812C41.9375 5.50344 41.6549 6.18544 41.1421 6.69831L37.125 10.7154L33.2846 6.875L37.3017 2.85794ZM29.5625 5.5V8.65219L28.1875 10.0272V6.1875C28.1875 5.42919 27.5708 4.8125 26.8125 4.8125H22.6875V3.4375H27.5C28.6371 3.4375 29.5625 4.36287 29.5625 5.5ZM10.3125 2.75C10.3125 2.37119 10.6205 2.0625 11 2.0625H20.625C21.0045 2.0625 21.3125 2.37119 21.3125 2.75V5.5C21.3125 5.87881 21.0045 6.1875 20.625 6.1875H11C10.6205 6.1875 10.3125 5.87881 10.3125 5.5V2.75ZM4.125 36.4375C2.98787 36.4375 2.0625 35.5121 2.0625 34.375V5.5C2.0625 4.36287 2.98787 3.4375 4.125 3.4375H8.9375V4.8125H4.8125C4.05419 4.8125 3.4375 5.42919 3.4375 6.1875V33.6875C3.4375 34.4458 4.05419 35.0625 4.8125 35.0625H22.6875V36.4375H4.125ZM41.9375 41.25C41.9375 41.6295 41.6295 41.9375 41.25 41.9375H24.75C24.3705 41.9375 24.0625 41.6295 24.0625 41.25V28.875C24.0625 28.4955 24.3705 28.1875 24.75 28.1875H41.25C41.6295 28.1875 41.9375 28.4955 41.9375 28.875V41.25Z" fill="#377FC1"/>
<path d="M30.9375 29.5625H32.3125V32.3125H30.9375V29.5625Z" fill="#377FC1"/>
<path d="M33.6875 29.5625H35.0625V32.3125H33.6875V29.5625Z" fill="#377FC1"/>
<path d="M36.4375 39.1875H37.8125V40.5625H36.4375V39.1875Z" fill="#377FC1"/>
<path d="M33.6875 39.1875H35.0625V40.5625H33.6875V39.1875Z" fill="#377FC1"/>
<path d="M39.1875 39.1875H40.5625V40.5625H39.1875V39.1875Z" fill="#377FC1"/>
<path d="M33.6875 36.4375H40.5625V37.8125H33.6875V36.4375Z" fill="#377FC1"/>
<path d="M13.9514 7.76392L12.7779 8.93748H6.1875V15.8125H13.0625V10.5971L14.9236 8.73604L13.9514 7.76392ZM11.6875 14.4375H7.5625V10.3125H11.4029L9.625 12.0904L8.73606 11.2014L7.76394 12.1735L9.625 14.0346L11.6875 11.9721V14.4375Z" fill="#377FC1"/>
<path d="M6.1875 24.0625H13.0625V17.1875H6.1875V24.0625ZM7.5625 18.5625H11.6875V22.6875H7.5625V18.5625Z" fill="#377FC1"/>
<path d="M6.1875 32.3125H13.0625V25.4375H6.1875V32.3125ZM7.5625 26.8125H11.6875V30.9375H7.5625V26.8125Z" fill="#377FC1"/>
<path d="M15.8125 8.9375H21.3125V10.3125H15.8125V8.9375Z" fill="#377FC1"/>
<path d="M15.8125 11.6875H21.3125V13.0625H15.8125V11.6875Z" fill="#377FC1"/>
<path d="M15.8125 14.4375H21.3125V15.8125H15.8125V14.4375Z" fill="#377FC1"/>
<path d="M15.8125 28.1875H21.3125V29.5625H15.8125V28.1875Z" fill="#377FC1"/>
<path d="M15.8125 30.9375H21.3125V32.3125H15.8125V30.9375Z" fill="#377FC1"/>
</svg>
