<svg width="44" height="44" viewBox="0 0 44 44" fill="none" xmlns="http://www.w3.org/2000/svg">
<path d="M25.4093 29.552L22 42.6248H23.375L26.8125 37.1248L26.125 35.7498L27.5 34.3748L27.3481 30.6513L25.4093 29.552Z" fill="#C3D9ED"/>
<path d="M18.5893 29.5486L22 42.6248H20.625L17.1875 37.1248L17.875 35.7498L16.5 34.3748L16.6519 30.6513L18.5893 29.5486Z" fill="#C3D9ED"/>
<path d="M6.73131 34.4375L6.1875 38.4999L7.5625 39.8749L8.9375 38.4999L8.39369 34.4375H6.73131Z" fill="#C3D9ED"/>
<path d="M35.6063 34.4375L35.0625 38.4999L36.4375 39.8749L37.8125 38.4999L37.2687 34.4375H35.6063Z" fill="#C3D9ED"/>
<path d="M8.9375 22.6875V21.3125H11V19.25C11 18.1129 10.0746 17.1875 8.9375 17.1875H7.5625C7.18369 17.1875 6.875 16.8795 6.875 16.5V15.8125H8.9375C9.31631 15.8125 9.625 16.1205 9.625 16.5H11C11 15.3629 10.0746 14.4375 8.9375 14.4375V13.0625H7.5625V14.4375H5.5V16.5C5.5 17.6371 6.42537 18.5625 7.5625 18.5625H8.9375C9.31631 18.5625 9.625 18.8705 9.625 19.25V19.9375H7.5625C7.18369 19.9375 6.875 19.6295 6.875 19.25H5.5C5.5 20.3871 6.42537 21.3125 7.5625 21.3125V22.6875H8.9375Z" fill="#377FC1"/>
<path d="M36.4375 15.8125C36.8163 15.8125 37.125 16.1205 37.125 16.5H38.5C38.5 15.3629 37.5746 14.4375 36.4375 14.4375V13.0625H35.0625V14.4375H33V16.5C33 17.6371 33.9254 18.5625 35.0625 18.5625H36.4375C36.8163 18.5625 37.125 18.8705 37.125 19.25V19.9375H35.0625C34.6837 19.9375 34.375 19.6295 34.375 19.25H33C33 20.3871 33.9254 21.3125 35.0625 21.3125V22.6875H36.4375V21.3125H38.5V19.25C38.5 18.1129 37.5746 17.1875 36.4375 17.1875H35.0625C34.6837 17.1875 34.375 16.8795 34.375 16.5V15.8125H36.4375Z" fill="#377FC1"/>
<path d="M38.9785 34.1804C39.941 33.4242 40.5625 32.2534 40.5625 30.9375C40.5625 28.8633 39.0225 27.1473 37.0267 26.8592C37.1992 26.3257 37.3443 25.7847 37.4591 25.2354C40.8073 24.4578 43.3125 21.4562 43.3125 17.875C43.3125 13.7053 39.9197 10.3125 35.75 10.3125C34.8274 10.3125 33.9467 10.4871 33.1279 10.791C31.9612 9.63254 30.6384 8.65767 29.1734 7.90967L28.5484 9.13411C29.7426 9.74392 30.8337 10.5194 31.8134 11.4297C29.6429 12.7607 28.1875 15.1477 28.1875 17.875C28.1875 22.0447 31.5803 25.4375 35.75 25.4375C35.8366 25.4375 35.9212 25.4272 36.0071 25.4244C35.8848 25.9277 35.7376 26.4227 35.5616 26.908C33.7068 27.3109 32.3125 28.9637 32.3125 30.9375C32.3125 32.2547 32.9354 33.4262 33.8993 34.1825C32.9642 34.553 32.1159 35.1161 31.4242 35.8552C30.7216 32.4692 28.2336 29.7344 24.9941 28.6708C26.4997 27.6884 27.5 25.9909 27.5 24.0625C27.5 21.0299 25.0326 18.5625 22 18.5625C18.9674 18.5625 16.5 21.0299 16.5 24.0625C16.5 25.9909 17.5003 27.6884 19.0066 28.6701C15.7664 29.7337 13.2784 32.4692 12.5764 35.8552C11.8841 35.1161 11.0364 34.553 10.1014 34.1825C11.0646 33.4262 11.6875 32.2547 11.6875 30.9375C11.6875 28.9637 10.2933 27.3109 8.43837 26.908C8.26237 26.4227 8.11594 25.9277 7.99288 25.4244C8.07881 25.4272 8.16337 25.4375 8.25 25.4375C12.4197 25.4375 15.8125 22.0447 15.8125 17.875C15.8125 15.1477 14.3571 12.7607 12.1866 11.4304C13.1663 10.5194 14.2574 9.74392 15.4516 9.13479L14.8266 7.91036C13.3616 8.65836 12.0388 9.63254 10.8721 10.7917C10.0533 10.4871 9.17262 10.3125 8.25 10.3125C4.08031 10.3125 0.6875 13.7053 0.6875 17.875C0.6875 21.4562 3.19275 24.4578 6.54087 25.2354C6.65569 25.7854 6.80075 26.3264 6.97331 26.8592C4.9775 27.1473 3.4375 28.8633 3.4375 30.9375C3.4375 32.2534 4.059 33.4242 5.0215 34.1804C2.486 35.1938 0.6875 37.6702 0.6875 40.5625V43.3125H12.375H13.75H30.25H31.625H43.3125V40.5625C43.3125 37.6702 41.514 35.1938 38.9785 34.1804ZM29.5625 17.875C29.5625 14.4629 32.3386 11.6875 35.75 11.6875C39.1614 11.6875 41.9375 14.4629 41.9375 17.875C41.9375 21.287 39.1614 24.0625 35.75 24.0625C32.3386 24.0625 29.5625 21.287 29.5625 17.875ZM2.0625 17.875C2.0625 14.4629 4.83862 11.6875 8.25 11.6875C11.6614 11.6875 14.4375 14.4629 14.4375 17.875C14.4375 21.287 11.6614 24.0625 8.25 24.0625C4.83862 24.0625 2.0625 21.287 2.0625 17.875ZM33.6875 30.9375C33.6875 29.4209 34.9209 28.1875 36.4375 28.1875C37.9541 28.1875 39.1875 29.4209 39.1875 30.9375C39.1875 32.4541 37.9541 33.6875 36.4375 33.6875C34.9209 33.6875 33.6875 32.4541 33.6875 30.9375ZM17.875 24.0625C17.875 21.7875 19.7251 19.9375 22 19.9375C24.2749 19.9375 26.125 21.7875 26.125 24.0625C26.125 26.3374 24.2749 28.1875 22 28.1875C19.7251 28.1875 17.875 26.3374 17.875 24.0625ZM24.5864 29.9839L22 39.9004L19.4136 29.9832C20.2283 29.7137 21.0959 29.5625 22 29.5625C22.9041 29.5625 23.7717 29.7137 24.5864 29.9839ZM4.8125 30.9375C4.8125 29.4209 6.04588 28.1875 7.5625 28.1875C9.07913 28.1875 10.3125 29.4209 10.3125 30.9375C10.3125 32.4541 9.07913 33.6875 7.5625 33.6875C6.04588 33.6875 4.8125 32.4541 4.8125 30.9375ZM2.0625 41.9375V40.5625C2.0625 37.5299 4.52994 35.0625 7.5625 35.0625C9.57894 35.0625 11.4049 36.1542 12.375 37.9142V41.9375H2.0625ZM13.75 37.8125C13.75 34.6596 15.5293 31.9172 18.1349 30.5291L21.1104 41.9375H13.75V37.8125ZM22.8896 41.9375L25.8651 30.5291C28.4708 31.9172 30.25 34.6596 30.25 37.8125V41.9375H22.8896ZM41.9375 41.9375H31.625V37.9135C32.5951 36.1542 34.4211 35.0625 36.4375 35.0625C39.4701 35.0625 41.9375 37.5299 41.9375 40.5625V41.9375Z" fill="#377FC1"/>
<path d="M22 15.8125C17.8303 15.8125 14.4375 12.4197 14.4375 8.25C14.4375 4.08031 17.8303 0.6875 22 0.6875C26.1697 0.6875 29.5625 4.08031 29.5625 8.25C29.5625 12.4197 26.1697 15.8125 22 15.8125Z" fill="#C3D9ED"/>
<path d="M22.6875 7.5625H21.3125C20.9337 7.5625 20.625 7.2545 20.625 6.875V6.1875H22.6875C23.0663 6.1875 23.375 6.4955 23.375 6.875H24.75C24.75 5.73787 23.8246 4.8125 22.6875 4.8125V3.4375H21.3125V4.8125H19.25V6.875C19.25 8.01213 20.1754 8.9375 21.3125 8.9375H22.6875C23.0663 8.9375 23.375 9.2455 23.375 9.625V10.3125H21.3125C20.9337 10.3125 20.625 10.0045 20.625 9.625H19.25C19.25 10.7621 20.1754 11.6875 21.3125 11.6875V13.0625H22.6875V11.6875H24.75V9.625C24.75 8.48787 23.8246 7.5625 22.6875 7.5625Z" fill="#377FC1"/>
</svg>
