<svg width="44" height="44" viewBox="0 0 44 44" fill="none" xmlns="http://www.w3.org/2000/svg">
<path d="M22.6875 28.875V22.6875C22.6875 20.7921 21.1454 19.25 19.25 19.25H12.375C10.4796 19.25 8.9375 20.7921 8.9375 22.6875V28.875C8.9375 30.7704 10.4796 32.3125 12.375 32.3125H19.25C21.1454 32.3125 22.6875 30.7704 22.6875 28.875Z" fill="#C3D9ED"/>
<path d="M39.875 24.0625V12.375C39.875 8.28025 36.8679 4.51619 32.9429 3.564C32.6734 1.936 31.2654 0.6875 29.5625 0.6875H18.5625C16.6671 0.6875 15.125 2.22956 15.125 4.125V6.37519C12.7401 7.26825 11 9.75288 11 12.375V19.5415C11.4221 19.3559 11.8855 19.25 12.375 19.25V16.5H13.75V15.125H12.375V12.375C12.375 10.4369 13.5774 8.59788 15.2694 7.80587C15.6784 9.24687 16.9916 10.3125 18.5625 10.3125H29.5625C31.1334 10.3125 32.4466 9.24687 32.8556 7.80587C34.5476 8.59788 35.75 10.4369 35.75 12.375V15.125H34.375V16.5H35.75V21.3125H22.396C22.5816 21.7346 22.6875 22.198 22.6875 22.6875H35.75V24.0625H30.25C28.3546 24.0625 26.8125 25.6046 26.8125 27.5V30.9375H7.5625V27.5C7.5625 26.7231 7.29369 26.0136 6.85712 25.4375H8.9375V24.0625H4.125C2.22956 24.0625 0.6875 25.6046 0.6875 27.5V43.3125H43.3125V27.5C43.3125 25.6046 41.7704 24.0625 39.875 24.0625ZM28.875 8.9375H18.5625C17.4254 8.9375 16.5 8.01213 16.5 6.875V4.125C16.5 2.98787 17.4254 2.0625 18.5625 2.0625H28.875V8.9375ZM31.625 6.875C31.625 7.77012 31.0482 8.52637 30.25 8.811V2.189C31.0482 2.47363 31.625 3.22988 31.625 4.125V6.875ZM33 6.37519V5.00019C36.1412 5.94894 38.5 9.03238 38.5 12.375V24.0625H37.125V12.375C37.125 9.75356 35.3849 7.26825 33 6.37519ZM30.25 25.4375C31.3871 25.4375 32.3125 26.3629 32.3125 27.5V41.9375H28.1875V27.5C28.1875 26.3629 29.1129 25.4375 30.25 25.4375ZM26.8125 32.3125V36.4375H7.5625V32.3125H26.8125ZM6.1875 41.9375H2.0625V27.5C2.0625 26.3629 2.98787 25.4375 4.125 25.4375C5.26213 25.4375 6.1875 26.3629 6.1875 27.5V41.9375ZM7.5625 37.8125H26.8125V41.9375H7.5625V37.8125ZM41.9375 41.9375H33.6875V27.5C33.6875 26.7231 33.4187 26.0136 32.9821 25.4375H39.875C41.0121 25.4375 41.9375 26.3629 41.9375 27.5V41.9375Z" fill="#377FC1"/>
<path d="M11.8222 22.0138L11.552 23.362C13.8441 23.8205 14.7283 25.2842 15.0198 25.9552C14.4127 26.6063 13.7499 27.5605 13.7499 29.5625H15.1249C15.1249 27.7847 15.7217 27.1879 16.2985 26.6111C17.4521 25.4575 19.9141 25.4375 19.9381 25.4375L19.9374 24.0625C19.8316 24.0625 17.6969 24.079 16.1019 25.0436C15.5704 24.0447 14.368 22.5225 11.8222 22.0138Z" fill="#377FC1"/>
<path d="M15.125 15.125H33V16.5H15.125V15.125Z" fill="#377FC1"/>
</svg>
